<?xml version="1.0" encoding="UTF-8"?>
<svg width="21px" height="22px" viewBox="0 0 21 22" version="1.1" xmlns="http://www.w3.org/2000/svg" xmlns:xlink="http://www.w3.org/1999/xlink">
    <!-- Generator: sketchtool 55.2 (78181) - https://sketchapp.com -->
    <title>FD0EDE94-C636-4C76-B1E7-21AE3656BE4C@2x</title>
    <desc>Created with sketchtool.</desc>
    <g id="ICONS" stroke="none" stroke-width="1" fill="none" fill-rule="evenodd">
        <g id="A365---ICONS" transform="translate(-635.000000, -1156.000000)">
            <g id="Group-21" transform="translate(636.244870, 1157.000000)">
                <path d="M17.6501818,19.7011212 L1.06260606,19.7011212 C0.561393939,19.7011212 0.15169697,19.2911212 0.15169697,18.7902121 L0.15169697,3.65021212 C0.15169697,3.149 0.561393939,2.739 1.06260606,2.739 L17.6501818,2.739 C18.1510909,2.739 18.5610909,3.149 18.5610909,3.65021212 L18.5610909,18.7902121 C18.5610909,19.2911212 18.1510909,19.7011212 17.6501818,19.7011212 Z" id="Stroke-1" stroke="#EF7D00" stroke-linecap="round"></path>
                <path d="M3.45421212,2.73912121 L3.45421212,0.151545455" id="Stroke-3" stroke="#EF7D00" stroke-linecap="round"></path>
                <path d="M14.8776061,2.73912121 L14.8776061,0.151545455" id="Stroke-5" stroke="#EF7D00" stroke-linecap="round"></path>
                <path d="M0.151636364,6.85709091 L18.5610303,6.85709091" id="Stroke-7" stroke="#EF7D00" stroke-linecap="round"></path>
                <path d="M4.255,12.1487273 L4.255,12.1487273 C3.63227273,12.1487273 3.12287879,11.6393333 3.12287879,11.0169091 C3.12287879,10.3941818 3.63227273,9.88478788 4.255,9.88478788 C4.87772727,9.88478788 5.38681818,10.3941818 5.38681818,11.0169091 C5.38681818,11.6393333 4.87772727,12.1487273 4.255,12.1487273" id="Fill-9" fill="#EF7D00"></path>
                <path d="M9.19609091,12.1487273 L9.19609091,12.1487273 C8.57336364,12.1487273 8.06427273,11.6393333 8.06427273,11.0169091 C8.06427273,10.3941818 8.57336364,9.88478788 9.19609091,9.88478788 C9.81881818,9.88478788 10.3279091,10.3941818 10.3279091,11.0169091 C10.3279091,11.6393333 9.81881818,12.1487273 9.19609091,12.1487273" id="Fill-11" fill="#EF7D00"></path>
                <path d="M14.1372121,12.1487273 L14.1372121,12.1487273 C13.5144848,12.1487273 13.0053939,11.6393333 13.0053939,11.0169091 C13.0053939,10.3941818 13.5144848,9.88478788 14.1372121,9.88478788 C14.7599394,9.88478788 15.2693333,10.3941818 15.2693333,11.0169091 C15.2693333,11.6393333 14.7599394,12.1487273 14.1372121,12.1487273" id="Fill-13" fill="#EF7D00"></path>
                <path d="M4.255,16.1835758 L4.255,16.1835758 C3.63227273,16.1835758 3.12287879,15.6741818 3.12287879,15.0517576 C3.12287879,14.4290303 3.63227273,13.9196364 4.255,13.9196364 C4.87772727,13.9196364 5.38681818,14.4290303 5.38681818,15.0517576 C5.38681818,15.6741818 4.87772727,16.1835758 4.255,16.1835758" id="Fill-15" fill="#EF7D00"></path>
                <path d="M9.19609091,16.1835758 L9.19609091,16.1835758 C8.57336364,16.1835758 8.06427273,15.6741818 8.06427273,15.0517576 C8.06427273,14.4290303 8.57336364,13.9196364 9.19609091,13.9196364 C9.81881818,13.9196364 10.3279091,14.4290303 10.3279091,15.0517576 C10.3279091,15.6741818 9.81881818,16.1835758 9.19609091,16.1835758" id="Fill-17" fill="#EF7D00"></path>
                <path d="M14.1372121,16.1835758 L14.1372121,16.1835758 C13.5144848,16.1835758 13.0053939,15.6741818 13.0053939,15.0517576 C13.0053939,14.4290303 13.5144848,13.9196364 14.1372121,13.9196364 C14.7599394,13.9196364 15.2693333,14.4290303 15.2693333,15.0517576 C15.2693333,15.6741818 14.7599394,16.1835758 14.1372121,16.1835758" id="Fill-19" fill="#EF7D00"></path>
            </g>
        </g>
    </g>
</svg>