<?xml version="1.0" encoding="UTF-8"?>
<svg width="70px" height="18px" viewBox="0 0 70 18" version="1.1" xmlns="http://www.w3.org/2000/svg" xmlns:xlink="http://www.w3.org/1999/xlink">
    <!-- Generator: Sketch 59.1 (86144) - https://sketch.com -->
    <title>Group@2x</title>
    <desc>Created with Sketch.</desc>
    <g id="Page-1" stroke="none" stroke-width="1" fill="none" fill-rule="evenodd">
        <g id="Watermark" transform="translate(-941.000000, -275.000000)" fill="#FFFFFF" fill-rule="nonzero">
            <g id="Group" transform="translate(941.580645, 275.484848)">
                <path d="M28.7487505,13.1612573 L23.0268217,13.1612573 L23.0268217,10.2871875 L28.8977591,10.2871875 C29.6193834,10.3670381 30.1686362,10.9702227 30.1792328,11.6944906 C30.1692968,12.4851506 29.5407014,13.1296905 28.7487505,13.1612573 L28.7487505,13.1612573 Z M23.0268217,3.73629065 L29.0567016,3.73629065 C29.7303594,3.85152308 30.2242926,4.43199391 30.2289023,5.11386201 C30.2198392,5.82672129 29.7015716,6.43133733 28.9970981,6.55089687 L23.0367556,6.55089687 L23.0268217,3.73629065 Z M31.5302437,8.31498105 C33.7256366,7.59150833 34.1229928,5.75805005 34.1229928,4.26155167 C34.1130589,1.98211706 32.4938325,8.9350749e-13 27.6758889,8.9350749e-13 L18.735375,8.9350749e-13 L18.735375,17.1651337 L27.6758889,17.1651337 C32.4838986,17.1651337 34.2521335,14.697398 34.2521335,12.2098411 C34.2374303,10.4755707 33.1562591,8.92848 31.5302437,8.31498105 L31.5302437,8.31498105 Z" id="Shape"></path>
                <polygon id="Shape" points="54.2689507 -6.75015599e-14 69.398287 -6.75015599e-14 69.398287 3.74620124 58.4709922 3.74620124 58.4709922 6.51125453 68.2856897 6.51125453 68.2856897 10.2772769 58.4709922 10.2772769 58.4709922 13.2504525 69.398287 13.2504525 69.398287 17.2146866 54.2689507 17.2146866"></polygon>
                <path d="M47.7821112,5.35171605 C47.6624065,6.01096812 47.1019456,6.50022015 46.4311002,6.5310757 L40.5899645,6.5310757 L40.5899645,3.78584358 L46.4807697,3.78584358 C47.143379,3.80437339 47.6946387,4.29976229 47.7821112,4.95529264 L47.7821112,5.35171605 Z M45.4873793,9.05941988e-13 L36.3680551,9.05941988e-13 L36.3680551,17.1948655 L40.5899645,17.1948655 L40.5899645,10.2574558 L45.1992961,10.2574558 C46.5114166,10.2898732 47.5549471,11.3662449 47.5436975,12.6756386 L47.5436975,17.1750443 L51.6165983,17.1750443 L51.6165983,11.6350271 C51.5761002,10.1125184 50.5764501,8.781456 49.1231883,8.31498105 C50.7135179,7.74302352 51.7446635,6.20395438 51.6662678,4.51922689 C51.6662678,0.802757408 48.4675506,9.05941988e-13 45.4873793,9.05941988e-13 Z" id="Shape"></path>
                <path d="M16.0730886,13.0423302 C16.0035513,13.0423302 10.3412259,13.1513467 8.38424671,12.9630456 C5.95263749,12.8768833 4.04566888,10.8505079 4.11266786,8.42399749 C4.07618103,6.07526937 5.89530354,4.11208783 8.24517205,3.96423411 C9.43724057,3.81557533 15.9638157,3.88494943 16.033353,3.88494943 L16.1724277,3.88494943 L16.1724277,-6.75015599e-14 L16.033353,-6.75015599e-14 L8.66239603,-6.75015599e-14 C7.43460201,0.0370447571 6.22201039,0.281674664 5.07625657,0.723472726 C3.73572537,1.329489 2.57298417,2.2677338 1.69872911,3.44888368 C0.591247706,4.92443151 -0.00499104632,6.71938467 3.01980663e-14,8.56274569 C0.00071855114,9.1370322 0.0472236278,9.71035308 0.139106133,10.2772769 C0.666450426,12.8929682 2.4115492,15.1014278 4.83784287,16.2236281 C6.32036386,16.8469874 7.9082071,17.1833177 9.5167118,17.2146866 L10.9074584,17.2146866 L16.1922955,17.2146866 L16.1922955,13.0423302 L16.0730886,13.0423302 Z" id="Shape"></path>
            </g>
        </g>
    </g>
</svg>