<?xml version="1.0" encoding="UTF-8"?>
<svg width="50px" height="51px" viewBox="0 0 50 51" version="1.1" xmlns="http://www.w3.org/2000/svg" xmlns:xlink="http://www.w3.org/1999/xlink">
    <!-- Generator: Sketch 62 (91390) - https://sketch.com -->
    <title>team-on</title>
    <desc>Created with Sketch.</desc>
    <defs>
        <polygon id="path-1" points="0 0.123084677 16.3387673 0.123084677 16.3387673 12.9607863 0 12.9607863"></polygon>
        <polygon id="path-3" points="0.325576037 0.420362903 10.8290323 0.420362903 10.8290323 10.9237759 0.325576037 10.9237759"></polygon>
        <polygon id="path-5" points="0.274423963 0.13172523 12.5288018 0.13172523 12.5288018 9.76032546 0.274423963 9.76032546"></polygon>
    </defs>
    <g id="Page-2" stroke="none" stroke-width="1" fill="none" fill-rule="evenodd">
        <g id="team-on" transform="translate(0.000000, 0.460714)">
            <circle id="Oval-Copy-5" fill="#006A4D" cx="25" cy="25" r="25"></circle>
            <g id="Group-12-Copy-8" transform="translate(9.642857, 12.500000)">
                <g id="Group-3" transform="translate(0.000000, 10.812486)">
                    <mask id="mask-2" fill="white">
                        <use xlink:href="#path-1"></use>
                    </mask>
                    <g id="Clip-2"></g>
                    <path d="M12.6125288,0.123084677 C11.412356,1.14007776 9.86267281,1.75701325 8.16955645,1.75701325 C6.47644009,1.75701325 4.92675691,1.14007776 3.7265841,0.123084677 L-8.640553e-05,0.123084677 L-8.640553e-05,12.9607863 L16.3387673,12.9607863 L16.3387673,0.123084677 L12.6125288,0.123084677 Z" id="Fill-1" fill="#FFFFFF" mask="url(#mask-2)"></path>
                </g>
                <g id="Group-6" transform="translate(2.592166, 0.011794)">
                    <mask id="mask-4" fill="white">
                        <use xlink:href="#path-3"></use>
                    </mask>
                    <g id="Clip-5"></g>
                    <path d="M5.57730415,10.9237759 C2.67667051,10.9237759 0.325576037,8.57268145 0.325576037,5.67204781 C0.325576037,2.77141417 2.67667051,0.4203197 5.57730415,0.4203197 C8.47750576,0.4203197 10.8290323,2.77141417 10.8290323,5.67204781 C10.8290323,8.57268145 8.47750576,10.9237759 5.57730415,10.9237759" id="Fill-4" fill="#FFFFFF" mask="url(#mask-4)"></path>
                </g>
                <g id="Group-9" transform="translate(17.713134, 10.812486)">
                    <mask id="mask-6" fill="white">
                        <use xlink:href="#path-5"></use>
                    </mask>
                    <g id="Clip-8"></g>
                    <path d="M9.73410138,0.13172523 C8.83375576,0.89468606 7.67160138,1.35738767 6.40187212,1.35738767 C5.13214286,1.35738767 3.96998848,0.89468606 3.06964286,0.13172523 L0.274423963,0.13172523 L0.274423963,9.76032546 L12.5288882,9.76032546 L12.5288882,0.13172523 L9.73410138,0.13172523 Z" id="Fill-7" fill="#FFFFFF" mask="url(#mask-6)"></path>
                </g>
                <path d="M24.1148329,10.9442108 C21.9395737,10.9442108 20.1760369,9.18067396 20.1760369,7.00541475 C20.1760369,4.83015553 21.9395737,3.06661866 24.1148329,3.06661866 C26.2900922,3.06661866 28.053629,4.83015553 28.053629,7.00541475 C28.053629,9.18067396 26.2900922,10.9442108 24.1148329,10.9442108" id="Fill-10" fill="#FFFFFF"></path>
            </g>
        </g>
    </g>
</svg>